<svg xmlns="http://www.w3.org/2000/svg" viewBox="0 0 640 480">
  <defs>
    <linearGradient id="sunset" x1="0" y1="0" x2="0" y2="1">
      <stop offset="0%" stop-color="#fde68a" />
      <stop offset="100%" stop-color="#fcd34d" />
    </linearGradient>
    <linearGradient id="water" x1="0" y1="0" x2="1" y2="0">
      <stop offset="0%" stop-color="#38bdf8" />
      <stop offset="100%" stop-color="#0ea5e9" />
    </linearGradient>
    <linearGradient id="deck" x1="0" y1="0" x2="1" y2="1">
      <stop offset="0%" stop-color="#fef3c7" />
      <stop offset="100%" stop-color="#f97316" />
    </linearGradient>
  </defs>
  <rect width="640" height="280" fill="url(#sunset)" />
  <rect y="280" width="640" height="200" fill="#fde7bc" />
  <rect x="70" y="200" width="500" height="120" rx="18" fill="#ffffff" opacity="0.85" />
  <rect x="100" y="220" width="170" height="80" fill="#1f2937" opacity="0.8" />
  <rect x="290" y="220" width="250" height="80" rx="18" fill="url(#deck)" />
  <rect x="110" y="340" width="420" height="80" rx="30" fill="url(#water)" />
  <path d="M140 360 C160 340 200 340 220 360 S280 380 300 360 S360 340 380 360 S440 380 460 360" stroke="#ffffff" stroke-width="4" fill="none" opacity="0.55" />
  <circle cx="510" cy="210" r="24" fill="#fde047" />
  <rect x="150" y="205" width="10" height="50" fill="#94a3b8" />
  <rect x="215" y="205" width="10" height="50" fill="#94a3b8" />
</svg>
