<svg xmlns="http://www.w3.org/2000/svg" viewBox="0 0 640 480">
  <defs>
    <linearGradient id="dusk" x1="0" y1="0" x2="0" y2="1">
      <stop offset="0%" stop-color="#1f2937" />
      <stop offset="100%" stop-color="#111827" />
    </linearGradient>
    <linearGradient id="glass" x1="0" y1="0" x2="0" y2="1">
      <stop offset="0%" stop-color="#60a5fa" />
      <stop offset="100%" stop-color="#1e3a8a" />
    </linearGradient>
    <linearGradient id="brise" x1="0" y1="0" x2="1" y2="0">
      <stop offset="0%" stop-color="#fbbf24" />
      <stop offset="100%" stop-color="#fb923c" />
    </linearGradient>
  </defs>
  <rect width="640" height="480" fill="url(#dusk)" />
  <rect x="60" y="160" width="520" height="220" rx="24" fill="#111827" stroke="#334155" stroke-width="6" />
  <rect x="90" y="190" width="180" height="160" fill="url(#brise)" opacity="0.95" />
  <g opacity="0.35" stroke="#fef3c7" stroke-width="6">
    <line x1="120" y1="190" x2="120" y2="350" />
    <line x1="150" y1="190" x2="150" y2="350" />
    <line x1="180" y1="190" x2="180" y2="350" />
    <line x1="210" y1="190" x2="210" y2="350" />
    <line x1="240" y1="190" x2="240" y2="350" />
  </g>
  <rect x="310" y="180" width="230" height="180" fill="url(#glass)" opacity="0.82" />
  <rect x="310" y="180" width="230" height="35" fill="#0ea5e9" opacity="0.45" />
  <rect x="340" y="210" width="40" height="150" fill="#e2e8f0" opacity="0.35" />
  <rect x="410" y="210" width="40" height="150" fill="#e2e8f0" opacity="0.2" />
  <rect x="480" y="210" width="40" height="150" fill="#e2e8f0" opacity="0.35" />
  <rect x="200" y="360" width="280" height="20" fill="#f97316" opacity="0.7" />
  <circle cx="480" cy="380" r="30" fill="#fb923c" opacity="0.45" />
</svg>
