<svg xmlns="http://www.w3.org/2000/svg" viewBox="0 0 640 480">
  <defs>
    <linearGradient id="sky" x1="0" y1="0" x2="0" y2="1">
      <stop offset="0%" stop-color="#d7ecff" />
      <stop offset="100%" stop-color="#f7fbff" />
    </linearGradient>
    <linearGradient id="facade" x1="0" y1="0" x2="1" y2="1">
      <stop offset="0%" stop-color="#f3f4f6" />
      <stop offset="100%" stop-color="#d1d5db" />
    </linearGradient>
    <linearGradient id="accent" x1="0" y1="0" x2="1" y2="0">
      <stop offset="0%" stop-color="#cbd5f5" />
      <stop offset="100%" stop-color="#93c5fd" />
    </linearGradient>
  </defs>
  <rect width="640" height="480" fill="url(#sky)" />
  <rect y="340" width="640" height="140" fill="#8fb76f" />
  <rect x="100" y="200" width="440" height="160" rx="12" fill="url(#facade)" />
  <rect x="140" y="240" width="130" height="90" rx="8" fill="#ffffff" opacity="0.85" />
  <rect x="300" y="230" width="210" height="110" rx="10" fill="#e5e7eb" />
  <rect x="320" y="250" width="80" height="70" fill="#1f2937" opacity="0.85" />
  <rect x="410" y="250" width="80" height="70" fill="#1f2937" opacity="0.75" />
  <path d="M120 200 L260 160 L520 160 L520 200 Z" fill="url(#accent)" />
  <rect x="120" y="320" width="120" height="15" fill="#9ca3af" />
  <rect x="280" y="320" width="260" height="15" fill="#9ca3af" />
  <circle cx="520" cy="330" r="22" fill="#6b7280" />
  <circle cx="180" cy="330" r="22" fill="#6b7280" />
</svg>
