<svg xmlns="http://www.w3.org/2000/svg" viewBox="0 0 640 480">
  <defs>
    <linearGradient id="night" x1="0" y1="0" x2="0" y2="1">
      <stop offset="0%" stop-color="#0f172a" />
      <stop offset="100%" stop-color="#1e293b" />
    </linearGradient>
    <linearGradient id="neon" x1="0" y1="0" x2="1" y2="0">
      <stop offset="0%" stop-color="#38bdf8" />
      <stop offset="100%" stop-color="#22d3ee" />
    </linearGradient>
  </defs>
  <rect width="640" height="480" fill="url(#night)" />
  <rect x="80" y="140" width="480" height="220" fill="#020617" stroke="#38bdf8" stroke-width="8" rx="24" />
  <rect x="110" y="170" width="420" height="160" fill="#0ea5e9" opacity="0.35" />
  <path d="M110 170 H530 L500 330 H140 Z" fill="url(#neon)" opacity="0.25" />
  <g stroke="#67e8f9" stroke-width="6" opacity="0.6">
    <line x1="160" y1="170" x2="160" y2="330" />
    <line x1="210" y1="170" x2="210" y2="330" />
    <line x1="260" y1="170" x2="260" y2="330" />
    <line x1="310" y1="170" x2="310" y2="330" />
    <line x1="360" y1="170" x2="360" y2="330" />
    <line x1="410" y1="170" x2="410" y2="330" />
    <line x1="460" y1="170" x2="460" y2="330" />
  </g>
  <rect x="80" y="360" width="480" height="20" fill="#38bdf8" opacity="0.7" />
  <circle cx="160" cy="370" r="16" fill="#facc15" />
  <circle cx="480" cy="370" r="16" fill="#facc15" />
  <text x="320" y="260" fill="#ecfeff" font-family="'Poppins', sans-serif" font-size="40" text-anchor="middle" opacity="0.65">VIDRO</text>
</svg>
