<svg xmlns="http://www.w3.org/2000/svg" viewBox="0 0 960 1280" preserveAspectRatio="xMidYMid slice">
  <defs>
    <linearGradient id="grad-ground" x1="0" y1="0" x2="1" y2="0">
      <stop offset="0%" stop-color="#d2d2d2" />
      <stop offset="100%" stop-color="#b3b3b3" />
    </linearGradient>
    <linearGradient id="grad-sky" x1="0" y1="0" x2="0" y2="1">
      <stop offset="0%" stop-color="#bcd6f4" />
      <stop offset="100%" stop-color="#89aee0" />
    </linearGradient>
    <linearGradient id="grad-container" x1="0" y1="0" x2="1" y2="0">
      <stop offset="0%" stop-color="#f9c712" />
      <stop offset="100%" stop-color="#f7a90d" />
    </linearGradient>
  </defs>
  <rect width="960" height="740" fill="url(#grad-sky)" />
  <rect y="740" width="960" height="540" fill="url(#grad-ground)" />
  <g opacity="0.35">
    <ellipse cx="200" cy="960" rx="160" ry="48" fill="#9fa4ad" />
    <ellipse cx="720" cy="980" rx="220" ry="58" fill="#9097a1" />
  </g>
  <g>
    <rect x="140" y="540" width="660" height="320" rx="24" fill="url(#grad-container)" />
    <rect x="220" y="560" width="80" height="290" fill="#3c3c3c" />
    <rect x="224" y="564" width="72" height="282" fill="#4a4a4a" />
    <rect x="320" y="620" width="260" height="140" rx="12" fill="#fef3c0" opacity="0.65" />
    <rect x="320" y="620" width="260" height="140" fill="rgba(255,255,255,0.08)" />
    <rect x="600" y="660" width="120" height="60" rx="10" fill="#fef3c0" opacity="0.72" />
    <rect x="600" y="760" width="120" height="70" fill="#d88600" opacity="0.65" />
    <rect x="140" y="820" width="660" height="28" fill="#c97d04" />
    <rect x="180" y="560" width="20" height="290" fill="#e29e0a" />
    <rect x="740" y="560" width="20" height="290" fill="#e29e0a" />
  </g>
  <g opacity="0.25">
    <rect x="120" y="480" width="120" height="60" rx="12" fill="#7f8a9a" />
    <rect x="760" y="500" width="140" height="60" rx="16" fill="#6e7a8a" />
  </g>
</svg>
