<svg xmlns="http://www.w3.org/2000/svg" viewBox="0 0 960 1280" preserveAspectRatio="xMidYMid slice">
  <defs>
    <linearGradient id="grad-wall" x1="0" y1="0" x2="1" y2="1">
      <stop offset="0%" stop-color="#f0f0f2" />
      <stop offset="100%" stop-color="#d7dce2" />
    </linearGradient>
    <linearGradient id="grad-stone" x1="0" y1="0" x2="0" y2="1">
      <stop offset="0%" stop-color="#4c3f36" />
      <stop offset="100%" stop-color="#2d251f" />
    </linearGradient>
    <linearGradient id="grad-glass" x1="0" y1="0" x2="1" y2="1">
      <stop offset="0%" stop-color="#9ec6f2" />
      <stop offset="50%" stop-color="#6da8e8" />
      <stop offset="100%" stop-color="#4d88c7" />
    </linearGradient>
    <linearGradient id="grad-floor" x1="0" y1="0" x2="1" y2="0">
      <stop offset="0%" stop-color="#b6bbc4" />
      <stop offset="100%" stop-color="#9ea4af" />
    </linearGradient>
  </defs>
  <rect width="960" height="760" fill="url(#grad-wall)" />
  <rect x="0" y="760" width="960" height="520" fill="url(#grad-floor)" />
  <rect x="120" y="300" width="180" height="520" fill="url(#grad-stone)" />
  <rect x="140" y="340" width="140" height="40" fill="#675546" opacity="0.6" />
  <rect x="120" y="640" width="180" height="60" fill="#524337" opacity="0.7" />
  <rect x="320" y="280" width="500" height="520" rx="28" fill="#14181f" />
  <rect x="360" y="320" width="420" height="440" fill="url(#grad-glass)" />
  <rect x="360" y="320" width="420" height="440" fill="rgba(255,255,255,0.12)" />
  <rect x="360" y="320" width="420" height="60" fill="rgba(255,255,255,0.15)" />
  <rect x="360" y="500" width="420" height="10" fill="rgba(24, 38, 56, 0.55)" />
  <rect x="560" y="320" width="20" height="440" fill="rgba(24, 38, 56, 0.45)" />
  <rect x="320" y="780" width="500" height="32" fill="#090c11" opacity="0.85" />
  <rect x="220" y="760" width="120" height="40" fill="#3c4858" opacity="0.4" />
  <rect x="740" y="760" width="100" height="40" fill="#1f2733" opacity="0.4" />
  <g opacity="0.35">
    <rect x="450" y="860" width="180" height="90" rx="20" fill="#f6f6f9" />
    <rect x="280" y="900" width="130" height="70" rx="14" fill="#eceef2" />
    <rect x="690" y="900" width="120" height="70" rx="14" fill="#e0e5eb" />
  </g>
</svg>
